<svg width="36" height="37" viewBox="0 0 36 37" fill="none" xmlns="http://www.w3.org/2000/svg">
<g clip-path="url(#clip0_519_105)">
<path d="M36 18.8082C35.9991 15.5042 35.0535 12.2697 33.2754 9.48766C31.4973 6.70563 28.9611 4.49265 25.9671 3.11078C22.9731 1.72892 19.6468 1.23604 16.382 1.69054C13.1172 2.14503 10.0507 3.52784 7.54569 5.67523C5.04067 7.82262 3.20203 10.6446 2.24751 13.8071C1.29298 16.9695 1.26257 20.3399 2.15985 23.5191C3.05714 26.6983 4.84455 29.5532 7.31041 31.7457C9.77626 33.9382 12.8173 35.3764 16.0733 35.89V23.8116H11.6961V18.8082H16.0733V15.0069C16.0733 10.668 18.6568 8.27383 22.5953 8.27383C23.9018 8.29066 25.2053 8.40499 26.4949 8.61586V12.8667H24.3014C23.9295 12.8157 23.5509 12.849 23.1936 12.9643C22.8363 13.0795 22.5094 13.2738 22.2371 13.5327C21.9647 13.7917 21.7539 14.1086 21.6202 14.4602C21.4864 14.8117 21.4332 15.1889 21.4645 15.5639V18.7985H26.2511L25.481 23.8018H21.4645V35.89C25.5183 35.2413 29.2087 33.1652 31.8729 30.0344C34.537 26.9036 36.0003 22.9233 36 18.8082Z" fill="#337FFF"/>
<path d="M25.4809 23.8116L26.2511 18.8082H21.4644V15.5639C21.4332 15.1889 21.4864 14.8117 21.6201 14.4602C21.7539 14.1086 21.9647 13.7917 22.237 13.5327C22.5094 13.2738 22.8363 13.0795 23.1936 12.9643C23.5509 12.849 23.9294 12.8157 24.3013 12.8667H26.4753V8.61585C25.1857 8.40498 23.8823 8.29066 22.5758 8.27383C18.6762 8.27383 16.0538 10.668 16.0538 15.0069V18.8082H11.696V23.8116H16.0733V35.89C17.8589 36.1766 19.6787 36.1766 21.4644 35.89V23.8116H25.4809Z" fill="white"/>
</g>
<defs>
<clipPath id="clip0_519_105">
<rect width="36" height="36.0768" fill="white"/>
</clipPath>
</defs>
</svg>
