<svg width="36" height="37" viewBox="0 0 36 37" fill="none" xmlns="http://www.w3.org/2000/svg">
<g clip-path="url(#clip0_519_109)">
<path d="M12.3615 0.990606C7.88858 2.49568 4.0734 5.78839 1.95529 9.93933C1.21617 11.3726 0.679943 12.8984 0.361502 14.4743C-0.55917 18.9726 0.298705 23.6466 2.76069 27.5458C5.22268 31.445 9.10394 34.2766 13.6153 35.4651C16.6695 36.2733 19.9273 36.2528 23.0116 35.5658C25.7982 34.9401 28.4306 33.6267 30.5279 31.7277C32.7515 29.7174 34.3295 27.0814 35.1758 24.2425C36.0904 21.1422 36.2137 17.8389 35.6385 14.6674H18.3558V21.7073H28.3603C28.1596 22.8319 27.7301 23.9053 27.0977 24.8633C26.4652 25.8213 25.6427 26.6442 24.6793 27.283C23.459 28.0776 22.0821 28.6111 20.6381 28.8486C19.1885 29.091 17.6973 29.1213 16.2585 28.8388C14.785 28.5488 13.3903 27.9567 12.1657 27.1012C10.2041 25.7388 8.73195 23.8013 7.96031 21.5663C7.17388 19.29 7.17388 16.8225 7.96031 14.5462C8.50854 12.9485 9.41922 11.4942 10.6235 10.2931C12.0014 8.89527 13.7442 7.89679 15.6611 7.40688C17.5779 6.91697 19.5951 6.95452 21.4917 7.51543C22.9741 7.96335 24.3297 8.74509 25.4503 9.79841C26.5815 8.69708 27.7026 7.58659 28.8337 6.48667C29.4197 5.88915 30.0473 5.32334 30.6212 4.7075C28.914 3.15169 26.8992 1.89957 24.7087 1.11391C20.7823 -0.332679 16.3302 -0.362978 12.3615 0.990606Z" fill="white"/>
<path d="M12.3615 0.990703C16.3302 -0.36288 20.7823 -0.332581 24.7309 1.10133C26.9208 1.8891 28.9263 3.14474 30.6434 4.69491C30.0696 5.30089 29.4506 5.87657 28.8538 6.47268C27.7227 7.5733 26.6023 8.68449 25.4711 9.78441C24.3524 8.72915 22.9958 7.94837 21.5118 7.50566C19.615 6.94517 17.5977 6.90816 15.681 7.3987C13.7642 7.88924 12.0217 8.88841 10.6444 10.2868C9.43971 11.4874 8.52897 12.9416 7.98113 14.5392C5.97276 13.0144 3.97085 11.479 1.96606 9.95352C4.07342 5.78849 7.8886 2.49578 12.3615 0.990703Z" fill="#E94435"/>
<path d="M0.361445 14.4751C0.684482 12.9004 1.2205 11.3752 1.95523 9.94013C3.9636 11.4649 5.96551 13.0003 7.97029 14.5258C7.18413 16.8022 7.18413 19.2697 7.97029 21.546C5.96551 23.0715 3.96073 24.6069 1.95523 26.1317C0.114702 22.5762 -0.45051 18.3942 0.361445 14.4751Z" fill="#F8BB15"/>
<path d="M18.3658 14.6555H35.6521C36.226 17.8263 36.1047 21.1303 35.1895 24.2313C34.346 27.0695 32.7629 29.7161 30.5416 31.7165C28.5985 30.2312 26.6446 28.7466 24.7115 27.2619C25.6759 26.6242 26.4992 25.8015 27.1317 24.8434C27.7643 23.8852 28.1932 22.8113 28.3926 21.6862H18.3866C18.3558 19.3539 18.3658 17.0103 18.3658 14.6555Z" fill="#547DBE"/>
<path d="M1.95532 26.1409C3.96369 24.616 5.9656 23.0807 7.97039 21.5552C8.73951 23.7918 10.2125 25.7303 12.1765 27.0907C13.4034 27.9418 14.7968 28.5335 16.2685 28.8283C17.7081 29.1101 19.2094 29.0805 20.6489 28.8382C22.0928 28.6005 23.4697 28.067 24.6901 27.2725C26.6331 28.7571 28.587 30.2425 30.5201 31.7271C28.422 33.6359 25.7896 34.9395 23.0037 35.5652C19.9288 36.2522 16.6695 36.2698 13.6074 35.4644C11.1768 34.8246 8.9061 33.7002 6.93679 32.1612C4.858 30.5266 3.15945 28.4738 1.95532 26.1409Z" fill="#34A751"/>
</g>
<defs>
<clipPath id="clip0_519_109">
<rect width="36" height="36.0768" fill="white"/>
</clipPath>
</defs>
</svg>
