<svg width="130" height="99" viewBox="0 0 130 99" fill="none" xmlns="http://www.w3.org/2000/svg">
<path d="M38.625 40.4375V54H35.5625V37.3594H38.625V40.2969C38.6458 39.8906 38.7396 39.5104 38.9062 39.1562C39.0729 38.7917 39.2917 38.4792 39.5625 38.2188C39.8438 37.9479 40.1667 37.7396 40.5312 37.5938C40.8958 37.4375 41.2865 37.3594 41.7031 37.3594H44.9688C45.3958 37.3594 45.7917 37.4427 46.1562 37.6094C46.5312 37.7656 46.8594 37.9844 47.1406 38.2656C47.4219 38.5365 47.6406 38.8594 47.7969 39.2344C47.9635 39.6094 48.0469 40.0104 48.0469 40.4375V43.25H44.9688V40.4375H38.625ZM51.875 46.7344C51.875 46.3073 51.9531 45.9115 52.1094 45.5469C52.276 45.1719 52.4948 44.8438 52.7656 44.5625C53.0469 44.2812 53.375 44.0625 53.75 43.9062C54.125 43.7396 54.5208 43.6562 54.9375 43.6562H62.875V40.4375H52.8281V37.3594H62.875C63.3021 37.3594 63.7031 37.4427 64.0781 37.6094C64.4531 37.7656 64.776 37.9844 65.0469 38.2656C65.3281 38.5365 65.5469 38.8594 65.7031 39.2344C65.8698 39.6094 65.9531 40.0104 65.9531 40.4375V54H62.875V51.1875C62.8438 51.5729 62.7396 51.9375 62.5625 52.2812C62.3854 52.625 62.1562 52.9271 61.875 53.1875C61.6042 53.4375 61.2917 53.6354 60.9375 53.7812C60.5833 53.9271 60.2083 54 59.8125 54H54.9375C54.5208 54 54.125 53.9219 53.75 53.7656C53.375 53.599 53.0469 53.3802 52.7656 53.1094C52.4948 52.8281 52.276 52.5 52.1094 52.125C51.9531 51.75 51.875 51.349 51.875 50.9219V46.7344ZM54.9375 50.9219H62.875V46.7344H54.9375V50.9219ZM71.0938 40.4375C71.0938 40.0104 71.1719 39.6094 71.3281 39.2344C71.4948 38.8594 71.7135 38.5365 71.9844 38.2656C72.2656 37.9844 72.5938 37.7656 72.9688 37.6094C73.3438 37.4427 73.7396 37.3594 74.1562 37.3594H82.7344V30.9531H85.8125V54H82.7344V51.1875C82.7031 51.5729 82.599 51.9375 82.4219 52.2812C82.2448 52.625 82.0156 52.9271 81.7344 53.1875C81.4635 53.4375 81.151 53.6354 80.7969 53.7812C80.4427 53.9271 80.0677 54 79.6719 54H74.1562C73.7396 54 73.3438 53.9219 72.9688 53.7656C72.5938 53.599 72.2656 53.3802 71.9844 53.1094C71.7135 52.8281 71.4948 52.5 71.3281 52.125C71.1719 51.75 71.0938 51.349 71.0938 50.9219V40.4375ZM74.1562 50.9219H82.7344V40.4375H74.1562V50.9219ZM105.016 47.25H94V50.9219H105.016V54H94C93.5833 54 93.1875 53.9219 92.8125 53.7656C92.4375 53.599 92.1094 53.3802 91.8281 53.1094C91.5573 52.8281 91.3385 52.5 91.1719 52.125C91.0156 51.75 90.9375 51.349 90.9375 50.9219V40.4375C90.9375 40.0104 91.0156 39.6094 91.1719 39.2344C91.3385 38.8594 91.5573 38.5365 91.8281 38.2656C92.1094 37.9844 92.4375 37.7656 92.8125 37.6094C93.1875 37.4427 93.5833 37.3594 94 37.3594H101.938C102.365 37.3594 102.766 37.4427 103.141 37.6094C103.516 37.7656 103.839 37.9844 104.109 38.2656C104.391 38.5365 104.609 38.8594 104.766 39.2344C104.932 39.6094 105.016 40.0104 105.016 40.4375V47.25ZM94 40.4375V44.1719H101.938V40.4375H94Z" fill="white"/>
<path d="M122.104 54.704C121.336 56.7947 120.12 58.5653 118.456 60.016C116.792 61.424 115.235 62.384 113.784 62.896C112.376 63.408 111.096 63.664 109.944 63.664C106.829 63.664 105.272 62.448 105.272 60.016C105.272 57.5413 106.637 55.3013 109.368 53.296C110.648 52.3573 112.035 51.7387 113.528 51.44C113.741 51.44 113.848 51.5253 113.848 51.696C113.848 51.7813 113.805 51.8667 113.72 51.952C112.653 52.7627 111.629 54.0213 110.648 55.728C109.709 57.4347 109.24 58.928 109.24 60.208C109.24 61.488 109.773 62.128 110.84 62.128C111.693 62.128 112.525 61.7867 113.336 61.104C114.189 60.3787 114.829 59.6533 115.256 58.928L115.896 57.904C116.749 56.5387 117.453 54.3627 118.008 51.376C118.605 48.3893 118.989 45.744 119.16 43.44L119.352 39.984C119.352 39.6427 119.288 39.472 119.16 39.472L118.904 39.6L112.568 47.024C112.099 47.5787 111.779 47.856 111.608 47.856C111.395 47.856 111.288 47.7067 111.288 47.408C111.288 46.8533 111.437 46.4267 111.736 46.128L112.312 45.424C117.176 39.9627 119.949 36.656 120.632 35.504C121.272 34.5227 122.211 33.6693 123.448 32.944C124.643 32.2613 126.051 31.92 127.672 31.92C128.099 31.92 128.312 32.0907 128.312 32.432C128.312 32.6453 128.141 32.8373 127.8 33.008C127.672 33.0507 127.501 33.1573 127.288 33.328C127.117 33.456 126.776 33.7973 126.264 34.352C125.795 34.9067 125.368 35.5467 124.984 36.272C124.6 36.9973 124.259 38.0213 123.96 39.344C123.661 40.624 123.512 42.0533 123.512 43.632C123.512 48.5387 123.043 52.2293 122.104 54.704Z" fill="white"/>
<path d="M32.7887 39.536C25.3648 52.3787 21.5461 60.5707 21.3328 64.112C21.3328 64.7093 21.1408 65.008 20.7568 65.008C20.1168 65.008 19.5408 64.432 19.0288 63.28C18.5168 62.1707 18.2608 61.0613 18.2608 59.952C18.2608 58.4587 18.5808 56.7947 19.2208 54.96C19.8608 53.1253 20.5221 51.6747 21.2048 50.608L22.1648 49.008C22.2928 48.8373 22.3568 48.688 22.3568 48.56C22.3568 48.4747 22.3141 48.432 22.2288 48.432L21.8448 48.624C18.6021 52.592 15.6154 55.8133 12.8848 58.288C10.1968 60.72 8.17004 62.2773 6.80471 62.96C5.48204 63.6427 4.39404 63.984 3.54071 63.984C1.53538 63.984 0.532715 62.1067 0.532715 58.352C0.532715 55.2373 1.13004 51.6747 2.32471 47.664C3.51938 43.6107 5.20471 39.5787 7.38071 35.568C9.55672 31.5573 11.9888 27.8667 14.6768 24.496C17.3648 21.0827 20.3728 18.3307 23.7008 16.24C27.0288 14.1067 30.2928 13.04 33.4928 13.04C34.1754 13.04 34.7728 13.104 35.2848 13.232C35.8394 13.3173 36.2661 13.4027 36.5648 13.488C36.8634 13.5733 37.0341 13.616 37.0768 13.616C37.3754 13.616 37.6314 13.4667 37.8448 13.168C38.7834 12.656 39.9781 12.4 41.4288 12.4C42.7088 12.4 43.3488 12.72 43.3488 13.36C43.3488 14.4693 42.1114 16.944 39.6368 20.784C37.2048 24.624 35.5834 26.544 34.7728 26.544C34.4314 26.544 34.2607 26.2027 34.2607 25.52C34.2607 24.8373 34.4101 23.8347 34.7088 22.512C35.0074 21.1893 35.3061 20.0373 35.6048 19.056C35.9461 18.032 36.1168 17.5413 36.1168 17.584C36.2021 17.2427 36.2448 16.9867 36.2448 16.816C36.2448 16.1333 35.9461 15.6213 35.3488 15.28C34.7941 14.9387 34.1754 14.768 33.4928 14.768C30.3354 14.768 26.6874 17.264 22.5488 22.256C18.4528 27.2053 14.9754 32.9227 12.1168 39.408C9.30071 45.8507 7.89271 51.1627 7.89271 55.344C7.89271 57.1787 8.34071 58.096 9.23671 58.096C10.2608 58.096 12.0741 56.7947 14.6768 54.192C19.4128 49.456 23.0181 45.04 25.4928 40.944C26.5594 39.3653 27.0928 37.8507 27.0928 36.4C27.0928 35.632 26.9434 35.056 26.6448 34.672C26.3461 34.2453 26.1968 33.9467 26.1968 33.776C26.1968 33.3493 26.4954 33.1147 27.0928 33.072C28.3728 32.944 29.8021 32.88 31.3808 32.88C33.1728 32.88 34.6874 32.9867 35.9248 33.2C36.2661 33.2427 36.4368 33.4133 36.4368 33.712C36.4368 33.968 36.2874 34.2667 35.9888 34.608C35.0501 35.8453 33.9834 37.488 32.7887 39.536Z" fill="white"/>
</svg>
