<svg width="130" height="53" viewBox="0 0 130 53" fill="none" xmlns="http://www.w3.org/2000/svg">
<path d="M39.0625 23.4844V37.0469H36V20.4063H39.0625V23.3438C39.0833 22.9375 39.1771 22.5573 39.3437 22.2031C39.5104 21.8386 39.7292 21.5261 40 21.2657C40.2813 20.9948 40.6042 20.7865 40.9687 20.6407C41.3333 20.4844 41.724 20.4063 42.1406 20.4063H45.4063C45.8333 20.4063 46.2292 20.4896 46.5937 20.6563C46.9687 20.8125 47.2969 21.0313 47.5781 21.3125C47.8594 21.5834 48.0781 21.9063 48.2344 22.2813C48.401 22.6563 48.4844 23.0573 48.4844 23.4844V26.2969H45.4063V23.4844H39.0625ZM52.3125 29.7813C52.3125 29.3542 52.3906 28.9584 52.5469 28.5938C52.7135 28.2188 52.9323 27.8907 53.2031 27.6094C53.4844 27.3281 53.8125 27.1094 54.1875 26.9531C54.5625 26.7865 54.9583 26.7031 55.375 26.7031H63.3125V23.4844H53.2656V20.4063H63.3125C63.7396 20.4063 64.1406 20.4896 64.5156 20.6563C64.8906 20.8125 65.2135 21.0313 65.4844 21.3125C65.7656 21.5834 65.9844 21.9063 66.1406 22.2813C66.3073 22.6563 66.3906 23.0573 66.3906 23.4844V37.0469H63.3125V34.2344C63.2813 34.6198 63.1771 34.9844 63 35.3281C62.8229 35.6719 62.5937 35.974 62.3125 36.2344C62.0417 36.4844 61.7292 36.6823 61.375 36.8281C61.0208 36.974 60.6458 37.0469 60.25 37.0469H55.375C54.9583 37.0469 54.5625 36.9688 54.1875 36.8125C53.8125 36.6459 53.4844 36.4271 53.2031 36.1563C52.9323 35.875 52.7135 35.5469 52.5469 35.1719C52.3906 34.7969 52.3125 34.3959 52.3125 33.9688V29.7813ZM55.375 33.9688H63.3125V29.7813H55.375V33.9688ZM71.5313 23.4844C71.5313 23.0573 71.6094 22.6563 71.7656 22.2813C71.9323 21.9063 72.151 21.5834 72.4219 21.3125C72.7031 21.0313 73.0313 20.8125 73.4063 20.6563C73.7813 20.4896 74.1771 20.4063 74.5937 20.4063H83.1719V14H86.25V37.0469H83.1719V34.2344C83.1406 34.6198 83.0365 34.9844 82.8594 35.3281C82.6823 35.6719 82.4531 35.974 82.1719 36.2344C81.901 36.4844 81.5885 36.6823 81.2344 36.8281C80.8802 36.974 80.5052 37.0469 80.1094 37.0469H74.5937C74.1771 37.0469 73.7813 36.9688 73.4063 36.8125C73.0313 36.6459 72.7031 36.4271 72.4219 36.1563C72.151 35.875 71.9323 35.5469 71.7656 35.1719C71.6094 34.7969 71.5313 34.3959 71.5313 33.9688V23.4844ZM74.5937 33.9688H83.1719V23.4844H74.5937V33.9688ZM105.453 30.2969H94.4375V33.9688H105.453V37.0469H94.4375C94.0208 37.0469 93.625 36.9688 93.25 36.8125C92.875 36.6459 92.5469 36.4271 92.2656 36.1563C91.9948 35.875 91.776 35.5469 91.6094 35.1719C91.4531 34.7969 91.375 34.3959 91.375 33.9688V23.4844C91.375 23.0573 91.4531 22.6563 91.6094 22.2813C91.776 21.9063 91.9948 21.5834 92.2656 21.3125C92.5469 21.0313 92.875 20.8125 93.25 20.6563C93.625 20.4896 94.0208 20.4063 94.4375 20.4063H102.376C102.803 20.4063 103.203 20.4896 103.578 20.6563C103.953 20.8125 104.277 21.0313 104.547 21.3125C104.829 21.5834 105.046 21.9063 105.203 22.2813C105.369 22.6563 105.453 23.0573 105.453 23.4844V30.2969ZM94.4375 23.4844V27.2188H102.376V23.4844H94.4375Z" fill="white"/>
<path d="M121.832 36.784C121.064 38.8747 119.848 40.6453 118.184 42.096C116.52 43.504 114.963 44.464 113.512 44.976C112.104 45.488 110.824 45.744 109.672 45.744C106.557 45.744 105 44.528 105 42.096C105 39.6213 106.365 37.3813 109.096 35.376C110.376 34.4373 111.763 33.8187 113.256 33.52C113.469 33.52 113.576 33.6053 113.576 33.776C113.576 33.8613 113.533 33.9467 113.448 34.032C112.381 34.8427 111.357 36.1013 110.376 37.808C109.437 39.5147 108.968 41.008 108.968 42.288C108.968 43.568 109.501 44.208 110.568 44.208C111.421 44.208 112.253 43.8667 113.064 43.184C113.917 42.4587 114.557 41.7333 114.984 41.008L115.624 39.984C116.477 38.6187 117.181 36.4427 117.736 33.456C118.333 30.4693 118.717 27.824 118.888 25.52L119.08 22.064C119.08 21.7227 119.016 21.552 118.888 21.552L118.632 21.68L112.296 29.104C111.827 29.6587 111.507 29.936 111.336 29.936C111.123 29.936 111.016 29.7867 111.016 29.488C111.016 28.9333 111.165 28.5067 111.464 28.208L112.04 27.504C116.904 22.0427 119.677 18.736 120.36 17.584C121 16.6027 121.939 15.7493 123.176 15.024C124.371 14.3413 125.779 14 127.4 14C127.827 14 128.04 14.1707 128.04 14.512C128.04 14.7253 127.869 14.9173 127.528 15.088C127.4 15.1307 127.229 15.2373 127.016 15.408C126.845 15.536 126.504 15.8773 125.992 16.432C125.523 16.9867 125.096 17.6267 124.712 18.352C124.328 19.0773 123.987 20.1013 123.688 21.424C123.389 22.704 123.24 24.1333 123.24 25.712C123.24 30.6187 122.771 34.3093 121.832 36.784Z" fill="white"/>
<path d="M32.256 27.136C24.8321 39.9787 21.0134 48.1707 20.8001 51.712C20.8001 52.3093 20.6081 52.608 20.2241 52.608C19.5841 52.608 19.008 52.032 18.496 50.88C17.984 49.7707 17.7281 48.6613 17.7281 47.552C17.7281 46.0587 18.0481 44.3947 18.6881 42.56C19.3281 40.7253 19.9894 39.2747 20.6721 38.208L21.6321 36.608C21.7601 36.4373 21.8241 36.288 21.8241 36.16C21.8241 36.0747 21.7814 36.032 21.6961 36.032L21.3121 36.224C18.0694 40.192 15.0826 43.4133 12.352 45.888C9.66405 48.32 7.63733 49.8773 6.272 50.56C4.94933 51.2427 3.86133 51.584 3.008 51.584C1.00267 51.584 0 49.7067 0 45.952C0 42.8373 0.59733 39.2747 1.792 35.264C2.98667 31.2107 4.672 27.1787 6.848 23.168C9.024 19.1573 11.456 15.4667 14.144 12.096C16.832 8.6827 19.8401 5.9307 23.1681 3.84C26.4961 1.7067 29.7601 0.64 32.9601 0.64C33.6427 0.64 34.2401 0.704001 34.7521 0.832001C35.3067 0.917301 35.7334 1.0027 36.0321 1.088C36.3307 1.1733 36.5014 1.216 36.5441 1.216C36.8427 1.216 37.0986 1.0667 37.312 0.768001C38.2506 0.256001 39.4453 0 40.896 0C42.176 0 42.8161 0.32 42.8161 0.96C42.8161 2.0693 41.5786 4.544 39.104 8.384C36.672 12.224 35.0507 14.144 34.2401 14.144C33.8987 14.144 33.728 13.8027 33.728 13.12C33.728 12.4373 33.8774 11.4347 34.1761 10.112C34.4747 8.7893 34.7734 7.6373 35.0721 6.656C35.4134 5.632 35.584 5.1413 35.584 5.184C35.6693 4.8427 35.7121 4.5867 35.7121 4.416C35.7121 3.7333 35.4134 3.2213 34.8161 2.88C34.2614 2.5387 33.6427 2.368 32.9601 2.368C29.8027 2.368 26.1547 4.864 22.0161 9.856C17.9201 14.8053 14.4427 20.5227 11.5841 27.008C8.768 33.4507 7.36 38.7627 7.36 42.944C7.36 44.7787 7.808 45.696 8.704 45.696C9.72805 45.696 11.5413 44.3947 14.144 41.792C18.88 37.056 22.4854 32.64 24.9601 28.544C26.0267 26.9653 26.5601 25.4507 26.5601 24C26.5601 23.232 26.4107 22.656 26.1121 22.272C25.8134 21.8453 25.6641 21.5467 25.6641 21.376C25.6641 20.9493 25.9627 20.7147 26.5601 20.672C27.8401 20.544 29.2694 20.48 30.8481 20.48C32.6401 20.48 34.1547 20.5867 35.3921 20.8C35.7334 20.8427 35.904 21.0133 35.904 21.312C35.904 21.568 35.7547 21.8667 35.4561 22.208C34.5174 23.4453 33.4507 25.088 32.256 27.136Z" fill="white"/>
</svg>
